/* XPM */
static char * enemy_w_r_xpm[] = {
"32 32 31 1",
" 	c #343434",
".	c #2C2C2C",
"+	c #252525",
"@	c #1A1A1A",
"#	c #1E1E1E",
"$	c #3C3C3C",
"%	c #000000",
"&	c #4F4F4F",
"*	c #6F6F6F",
"=	c #BFBFBF",
"-	c #CFCFCF",
";	c #EFEFEF",
">	c #0F0F0F",
",	c #BD0000",
"'	c #8F8F8F",
")	c #726C62",
"!	c #9F9F9F",
"~	c #FFFFFF",
"{	c #DFDFDF",
"]	c #635C51",
"^	c #1F1F1F",
"/	c #534A3F",
"(	c #453C31",
"_	c #A56727",
":	c #7F7F7F",
"<	c #373025",
"[	c #2B261D",
"}	c #74491C",
"|	c #D0AE3C",
"1	c #D0873A",
"2	c #42290E",
" ...+@+#@@#@$%%%%++..+#+$.@@@#+.",
".+.+##$.++@#%&**&%+++.@$. .#@@+.",
".+@@@$ $ .+%&*===*%@@@@+ ..+#+#+",
"+@#$..$ $ #%&=-;;;*%@#@#+++.@#@#",
"@#$. . ...+%*->&->;% .++#+.+@###",
"#+.$..$  +.%&*,>-,;%. . .##@#.++",
"#..+.+..++%.%'*-&-*% ..$+@#@ . .",
"+#..... .%)% %!!~{%$.. .$.@@. ..",
"#@+.++ .%)]%%^&**&%+.+.$.+#...++",
"@#@+ .$%)]/(_:^^&^:%+.+.+@+.+##@",
"+@##+.%</<([}^:&{{:{% . .@@## .$",
".+#@@+%}|1_}:={:^^&=% .. +#@++$+",
"+.#@##%^^%^&^^:^{=:%{%$.+.@#+.. ",
".+@#@%::%@%::={^^^&%:% +.+#%%.$.",
".#@@@%-%@# %^^=~~:%#%:%.##%;{%..",
"+@ +%:%#@# %^:&^^%+@%=%%%%^&:%$.",
"##$.%{%+##%2{^^&2%.#%=:{{:&={%.+",
"#$..%{%.#@%}^{^^}%..@%%%%%%%%#@#",
"@ + %:&%+%<(1|1_(<%.#@#@+++.+#@#",
"...$%&^%+%</]]]](]<%#@@#@#@#@@#@",
"+. .%=&%.%/]/]]]/]/%@#@+. .#@#@@",
".$.+%{:%+%(///((((/(%#..$.++#@#@",
". $.$%% #%<(/(/(<<(<%#+. ++.@@@#",
" .. . .#@%<(((/(<%^^%.+ $. .+@#+",
".  +%%%%#%^^%%%%%@%&%++$.+.#@#++",
".+%%%%%%%%&&%#+ . %!%.. .+#$.#+.",
"+.%%%%%%%!!%%%%%% %=%##. ++. +@.",
"@#%%%%%%{!%%%%%%%%%{~%@+.#. $+@@",
"@+#@%%%{=%%%%%%%%%%%=%%%@@$+.+##",
".. .#%%=%{%%%@$%%%%~%={~%+.++#@ ",
"$  ..#%%~%~%@#++..%%%%%%@#@#@@$.",
".$. +@##%.%#@@##++.+.+@@##@@#@. "};
