/* XPM */
static char * enemy_w_l_xpm[] = {
"32 32 31 1",
" 	c #343434",
".	c #2C2C2C",
"+	c #252525",
"@	c #1A1A1A",
"#	c #1E1E1E",
"$	c #3C3C3C",
"%	c #000000",
"&	c #4F4F4F",
"*	c #6F6F6F",
"=	c #BFBFBF",
"-	c #EFEFEF",
";	c #CFCFCF",
">	c #0F0F0F",
",	c #BD0000",
"'	c #8F8F8F",
")	c #DFDFDF",
"!	c #FFFFFF",
"~	c #9F9F9F",
"{	c #726C62",
"]	c #1F1F1F",
"^	c #635C51",
"/	c #7F7F7F",
"(	c #A56727",
"_	c #453C31",
":	c #534A3F",
"<	c #74491C",
"[	c #2B261D",
"}	c #373025",
"|	c #D0873A",
"1	c #D0AE3C",
"2	c #42290E",
" ...+@+#@@#@$ +%%%%..+#+$.@@@#+.",
".+.+##$.++@#$.%&**&%+.@$. .#@@+.",
".+@@@$ $ .+##%*===*&%@@+ ..+#+#+",
"+@#$..$ $ #+%*---;=&%#@#+++.@#@#",
"@#$. . ...+.%->;&>;*%.++#+.+@###",
"#+.$..$  +. %-,;>,*&% . .##@#.++",
"#..+.+..++..%*;&;*'% %.$+@#@ . .",
"+#..... ..$  %)!~~%$%{%.$.@@. ..",
"#@+.++ .+..$.%&**&]%%^{%.+#...++",
"@#@+ .$.++. %/]&]]/(_:^{%@+.+##@",
"+@##+..+..+%)/))&/]<[_}:}%@## .$",
".+#@@++.++#%=&]]/)=/<(|1<%#@++$+",
"+.#@##@#@#%)%/=)]/]]&]%]]%@#+.. ",
".+@%%@#@#@%/%&]]])=//% %//%. .$.",
".#%)-%@@@%/% %/!!=]]%$..%;%$. ..",
"+@%/&]%%%%=%..%]]&/]%. +#%/%+.$.",
"##%)=&/))/=%+.%2&]])2%.# %)%#+.+",
"#$.%%%%%%%%#. %<]])]<%@#.%)%##@#",
"@ + .$..+#@#+%}_(|1|_}%@%&/%+#@#",
"...$ . .+@@@%}^_^^^^:}%#%]&%@@#@",
"+. .. .+.#.#%:^:^^^:^:%+%&=%@#@@",
".$.++.. +#.%_:____:::_%.%/)%#@#@",
". $.$.+ #@.%}_}}_:_:_}%. %%.@@@#",
" .. . .#@@.%]]%}_:___}% $. .+@#+",
".  ++.+.#@#%&%@%%%%%]]%$%%%%@#++",
".+..##@+@##%~%+ .  %&&%%%%%%%%+.",
"+.++@@##$.@%=% %%%%%%~~%%%%%%%@.",
"@#@#@#@ . %!)%%%%%%%%%~)%%%%%%@@",
"@+#@@#@$%%%=%%%%%%%%%%%=)%%%.+##",
".. .#@#%!)=%!%%%% .%%%)%=%%++#@ ",
"$  ..#@+%%%%%%++.. .%!%!%%@#@@$.",
".$. +@##+.+#@@##++.+.%@%##@@#@. "};
