/* XPM */
static char * enemy_s_r_xpm[] = {
"32 32 20 1",
" 	c #343434",
".	c #2C2C2C",
"+	c #252525",
"@	c #1A1A1A",
"#	c #1E1E1E",
"$	c #3C3C3C",
"%	c #000000",
"&	c #F0F0F0",
"*	c #C0C0C0",
"=	c #101010",
"-	c #202020",
";	c #808080",
">	c #707070",
",	c #909090",
"'	c #FF00FF",
")	c #B0B0B0",
"!	c #505050",
"~	c #E0E0E0",
"{	c #010101",
"]	c #606060",
" ...+@+#@@#@$ +@@++..+#+$.@@@#+.",
".+.+##$.++@#$..$@#+++.@$. .#@@+.",
".+@@@$ $ .+##.+.+#@@@@@+ .%%#+#+",
"+@#$..$ $ #+#.. +##@@#%%%%&&%#@#",
"@#$. . ...+.+#..#@@+ %*&&&***%##",
"#+.$..$  +. .@#@#@+$%%*=-;;&&*%+",
"#..+.+..++.. .@@#@%%&>--=,'=&&)%",
"+#..... ..$  .#@%%&&=,,))*==;;,%",
"#@+.++ .+..$.#%%&&=)==,,!-*))=%+",
"@#@+ .$.++. .%&&=)=-)-!&--!-&,,%",
"+@##+..+..+.%&-)--)-~%%%&,-,%%%$",
".+#@@++.++#@%&)-)-~%% ..%&&*%+$+",
"+.#@##@#@#@%&=)-~%%# .$.+%%%+.. ",
".+@#@@#@#@@%&)-)%#@@.. +.+#. .$.",
".#@@@+@@@# %&=)~%@##.$..###$. ..",
"+@ +.+.#@# +%&)-%.+@@. +# .#+.$.",
"##$....+##..%&=)~%.#@+.# .$+#+.+",
"#$.. .+.#@##%&)=-%..@#@#.++%##@#",
"@ + .$..+#@#+%&=)~%%#@#@++%&%#@#",
"...$ . .+@@@@%&)=-)~%@@#@#@%&%#@",
"+. .. .+.#.#@#%&=)=-%%@+. .%&=%@",
".$.++.. +#..+#+%&&=-)~%.$.++%&!%",
". $.$.+ #@.$.#@@%%&)--%. ++.%&=%",
" .. . .#@@. .@##@#%&=)~%$. .%&!%",
".  ++.+%%%%%%#@@@@%&)=-%.+.%&)-%",
".+{{{{%>&&&&>%%%%%&)=)=%%%%&!-%.",
"{{{{{%]-)=)=)&&&&&)=)>>=&&&=-)%.",
"{{{{{%-)=)-)-=)=)=)-)-)=)=)-!%@@",
"{{{{{%-)=)-)-)-)-)-)-=>==!=%%+##",
".{{{{{%>->->->->->->-=%%%%%++#@ ",
"${{{{{{%%!-!-!=!=!=!=%#@@#@#@@$.",
".$.{{{{{{%%%%%%%%%%%%+@@##@@#@. "};
