/* XPM */
static char * floor_xpm[] = {
"32 32 6 1",
" 	c #343434",
".	c #2C2C2C",
"+	c #252525",
"@	c #1A1A1A",
"#	c #1E1E1E",
"$	c #3C3C3C",
" ...+@+#@@#@$ +@@++..+#+$.@@@#+.",
".+.+##$.++@#$..$@#+++.@$. .#@@+.",
".+@@@$ $ .+##.+.+#@@@@@+ ..+#+#+",
"+@#$..$ $ #+#.. +##@@#@#+++.@#@#",
"@#$. . ...+.+#..#@@+ .++#+.+@###",
"#+.$..$  +. .@#@#@+$. . .##@#.++",
"#..+.+..++.. .@@#@$  ..$+@#@ . .",
"+#..... ..$  .#@@. $.. .$.@@. ..",
"#@+.++ .+..$.#@@#+.+.+.$.+#...++",
"@#@+ .$.++. .@# .#+.+.+.+@+.+##@",
"+@##+..+..+.##.. ##+. . .@@## .$",
".+#@@++.++#@#@. .@#.+ .. +#@++$+",
"+.#@##@#@#@@@##..@@# .$.+.@#+.. ",
".+@#@@#@#@@$.+.#@#@@.. +.+#. .$.",
".#@@@+@@@# . .+$+@##.$..###$. ..",
"+@ +.+.#@# +..+. .+@@. +# .#+.$.",
"##$....+##..+. .$+.#@+.# .$+#+.+",
"#$.. .+.#@##.  +....@#@#.+++##@#",
"@ + .$..+#@#+.+.+.+.#@#@+++.+#@#",
"...$ . .+@@@@+.. .+.#@@#@#@#@@#@",
"+. .. .+.#.#@#.+. ++@#@+. .#@#@@",
".$.++.. +#..+#++ +.#@#..$.++#@#@",
". $.$.+ #@.$.#@@##@@@#+. ++.@@@#",
" .. . .#@@. .@##@#@@#.+ $. .+@#+",
".  ++.+.#@#.+#@@@@##@++$.+.#@#++",
".+..##@+@##@##+ .  +#.. .+#$.#+.",
"+.++@@##$.@#@+ $. ...##. ++. +@.",
"@#@#@#@ . .#@ $. .$ . @+.#. $+@@",
"@+#@@#@$...@#+.$ $ . .#@@@$+.+##",
".. .#@#. $ .#@$ . ..++@#@+.++#@ ",
"$  ..#@+. ..@#++.. .+.#@@#@#@@$.",
".$. +@##+.+#@@##++.+.+@@##@@#@. "};
