/* XPM */
static char * player_xpm[] = {
"32 32 63 1",
" 	c #343434",
".	c #2C2C2C",
"+	c #252525",
"@	c #1A1A1A",
"#	c #1E1E1E",
"$	c #3C3C3C",
"%	c #000000",
"&	c #848477",
"*	c #676750",
"=	c #505036",
"-	c #404022",
";	c #D1AA1B",
">	c #170D04",
",	c #B48B7B",
"'	c #CDAC99",
")	c #897015",
"!	c #1A8326",
"~	c #13611B",
"{	c #B43917",
"]	c #1B8827",
"^	c #5C3918",
"/	c #4A2A0C",
"(	c #774F28",
"_	c #7E5328",
":	c #732607",
"<	c #412710",
"[	c #12661A",
"}	c #09330D",
"|	c #2C2C1C",
"1	c #0D4512",
"2	c #0E4A13",
"3	c #9D9D91",
"4	c #116119",
"5	c #5D3A1B",
"6	c #251407",
"7	c #331C08",
"8	c #696956",
"9	c #A4A499",
"0	c #888879",
"a	c #B1B1A8",
"b	c #25251C",
"c	c #4E4E33",
"d	c #57371B",
"e	c #747463",
"f	c #A5A59B",
"g	c #3A3A2B",
"h	c #031B06",
"i	c #929286",
"j	c #69550B",
"k	c #1B0D03",
"l	c #361E0D",
"m	c #062808",
"n	c #8C8C7F",
"o	c #4F4F39",
"p	c #073E0B",
"q	c #08430C",
"r	c #565656",
"s	c #797979",
"t	c #767665",
"u	c #3B200D",
"v	c #848484",
"w	c #7D7D6F",
"x	c #595945",
" ...+@+#@@#@$ +@@++..+#+$.@@@#+.",
".+.+##$.++@#$..$@#+++.@$. .#@@+.",
".+@@@$ $ .+##.+.+#@@@@@+ ..+#+#+",
"+@#$..$ $ #+#.. +##@@#@#+++.@#@#",
"@#$. . ...+.+#..%%%%%.++#+.+@###",
"#+.$..$  +. .@%%&&***%. .##@#.++",
"#..+.+..++.. %*&**====%$+@#@ . .",
"+#..... ..$ %*&*=======%%%%%. ..",
"#@+.++ .+..$%&*======--%;;;;%.++",
"@#@+ .$.++% %>,',>'=---;))!~)%#@",
"+@##+..+.%*%%*={====--;)!~]^/%.$",
".+#@@++.+%-*%*='===---;^(^_^/;%+",
"+.#@##@#@#%--=:{:=---;)^(<[~})% ",
".+@#@@#@#@%-|=|*|=--|;]~!1[~2)%.",
".#@@@+@@%%3*-|-**|||-;]~41567)%.",
"+@ +.+.%890ab|c-*==--)_<d<567)%.",
"##$...%e90fgac-=**--|)_^d;)1h)%+",
"#$.. %**-ig%%b--==-|b)[14)j1h)%#",
"@ + %**-|%%#%b-==--||)[~415<kj%#",
"...$%*-|%@@@%|----||b)5<d<56kj%@",
"+. .%-||%#.#@%|||||bb))<l<[mhj%@",
".$.++%%%+#..%no|||bbon)1p1q1hj%@",
". $.$.+ #@.%rsfgnonoat)14<u6kj%%",
" .. . .#@@%n0fgn%%onof))d6u6h%%%",
".  ++.+.#@%oavn%@@%on8n)l6qmj%%%",
".+..##@+@#%ntw% . %%o3o)jmqmj%%.",
"+.++@@##$.@%ig%$.%%%%xn%jjmj%%%.",
"@#@#@#@ . .%-|%.%%%%%|b%%jj%%%@@",
"@+#@@#@$..%%%-b%%%%%%|b%%%%%%+##",
".. .#@#. %---|b%%%%%%bbbbb%%%#@ ",
"$  ..#@+%%-|bbb%%%%%%bbbbb%%@@$.",
".$. +@##+%%%%%%%%+.%%%%%%%%@#@. "};
