/* XPM */
static char * player2_xpm[] = {
"32 32 66 1",
" 	c #343434",
".	c #2C2C2C",
"+	c #252525",
"@	c #1A1A1A",
"#	c #1E1E1E",
"$	c #3C3C3C",
"%	c #000000",
"&	c #848477",
"*	c #676750",
"=	c #505036",
"-	c #404022",
";	c #D1AA1B",
">	c #170D04",
",	c #B48B7B",
"'	c #CDAC99",
")	c #897015",
"!	c #1A8326",
"~	c #13611B",
"{	c #B43917",
"]	c #1B8827",
"^	c #5C3918",
"/	c #4A2A0C",
"(	c #2C2C1C",
"_	c #774F28",
":	c #7E5328",
"<	c #732607",
"[	c #412710",
"}	c #12661A",
"|	c #09330D",
"1	c #0D4512",
"2	c #0E4A13",
"3	c #929286",
"4	c #3A3A2B",
"5	c #454535",
"6	c #116119",
"7	c #5D3A1B",
"8	c #251407",
"9	c #331C08",
"0	c #747463",
"a	c #A4A499",
"b	c #888879",
"c	c #A5A59B",
"d	c #2A2A22",
"e	c #4E4E33",
"f	c #57371B",
"g	c #696956",
"h	c #B1B1A8",
"i	c #031B06",
"j	c #25251C",
"k	c #69550B",
"l	c #191919",
"m	c #1B0D03",
"n	c #361E0D",
"o	c #062808",
"p	c #8C8C7F",
"q	c #4F4F39",
"r	c #073E0B",
"s	c #08430C",
"t	c #565656",
"u	c #797979",
"v	c #767665",
"w	c #3B200D",
"x	c #848484",
"y	c #7D7D6F",
"z	c #9D9D91",
"A	c #595945",
" ...+@+#@@#@$ +@@++..+#+$.@@@#+.",
".+.+##$.++@#$..$@#+++.@$. .#@@+.",
".+@@@$ $ .+##.+.+#@@@@@+ ..+#+#+",
"+@#$..$ $ #+#.. +##@@#@#+++.@#@#",
"@#$. . ...+.+#..%%%%%.++#+.+@###",
"#+.$..$  +. .@%%&&***%. .##@#.++",
"#..+.+..++.. %*&**====%$+@#@ . .",
"+#..... ..$ %*&*=======%%%%%. ..",
"#@+.++ .+..$%&*======--%;;;;%.++",
"@#@+ .$.++% %>,',>'=---;))!~)%#@",
"+@##+%%%.%*%%*={====--;)!~]^/%.$",
".+#@%-((%%-*%*='===---;^_^:^/;%+",
"+.#@%*-(%#%--=<{<=---;)^_[}~|)% ",
".+@#%**-(%%-(=(*(=--(;]~!1}~2)%.",
".#@@@%**-345-(-**(((-;]~61789)%.",
"+@ +.+%0abc4d(e-*==--):[f[789)%.",
"##$....%gabche-=**--():^f;)1i)%+",
"#$.. .+.%%%%%j--==-(j)}16)k1i)%#",
"@ + .$..+#l#%j-==--(()}~617[mk%#",
"...$ . .+@@@%(----((j)7[f[78mk%@",
"+. .. .+.#.#@%(((((jj))[n[}oik%@",
".$.++.. +#..%pq(((jjqp)1r1s1ik%@",
". $.$.+ #@.%tuc4pqpqhv)16[w8mk%%",
" .. . .#@@%pbc4p%%qpqc))f8w8i%%%",
".  ++.+.#@%qhxp%@@%qpgp)n8sok%%%",
".+..##@+@#%pvy% . %%qzq)kosok%%.",
"+.++@@##$.@%34%$.%%%%Ap%kkok%%%.",
"@#@#@#@ . .%-(%.%%%%%(j%%kk%%%@@",
"@+#@@#@$..%%%-j%%%%%%(j%%%%%%+##",
".. .#@#. %---(j%%%%%%jjjjj%%%#@ ",
"$  ..#@+%%-(jjj%%%%%%jjjjj%%@@$.",
".$. +@##+%%%%%%%%+.%%%%%%%%@#@. "};
