/* XPM */
static char * portal_open_xpm[] = {
"32 32 244 2",
"  	c #343434",
". 	c #2C2C2C",
"+ 	c #252525",
"@ 	c #1A1A1A",
"# 	c #1E1E1E",
"$ 	c #3C3C3C",
"% 	c #444444",
"& 	c #5E5E5E",
"* 	c #787777",
"= 	c #E4E709",
"- 	c #8B8A8A",
"; 	c #F1F402",
"> 	c #838282",
", 	c #777676",
"' 	c #5D5D5D",
") 	c #434343",
"! 	c #4E4E4E",
"~ 	c #6F6F6F",
"{ 	c #888787",
"] 	c #8D8C8C",
"^ 	c #A5A5A5",
"/ 	c #F5F800",
"( 	c #5C5C5C",
"_ 	c #828181",
": 	c #959595",
"< 	c #5A5A5A",
"[ 	c #636363",
"} 	c #0437FF",
"| 	c #042FFF",
"1 	c #0431FF",
"2 	c #0434FF",
"3 	c #0538FF",
"4 	c #626262",
"5 	c #5F5F5F",
"6 	c #8C8B8B",
"7 	c #042DFF",
"8 	c #0530FF",
"9 	c #0432FF",
"0 	c #0433FF",
"a 	c #0438FF",
"b 	c #043EFF",
"c 	c #064AFF",
"d 	c #545454",
"e 	c #878686",
"f 	c #0436FF",
"g 	c #0342FF",
"h 	c #0346FF",
"i 	c #0349FF",
"j 	c #0345FF",
"k 	c #0440FF",
"l 	c #043AFF",
"m 	c #0441FF",
"n 	c #4F4F4F",
"o 	c #7A7979",
"p 	c #0353FF",
"q 	c #0363FF",
"r 	c #0274FF",
"s 	c #0278FF",
"t 	c #0270FF",
"u 	c #0268FF",
"v 	c #0454FF",
"w 	c #0439FF",
"x 	c #0442FF",
"y 	c #797878",
"z 	c #393939",
"A 	c #0A31FE",
"B 	c #0435FF",
"C 	c #0347FF",
"D 	c #035DFF",
"E 	c #0279FF",
"F 	c #0193FF",
"G 	c #019BFF",
"H 	c #009BFF",
"I 	c #0198FF",
"J 	c #0195FF",
"K 	c #0185FF",
"L 	c #0264FF",
"M 	c #043CFF",
"N 	c #044AFF",
"O 	c #242424",
"P 	c #7B7A7A",
"Q 	c #0E3AFE",
"R 	c #0183FF",
"S 	c #0199FF",
"T 	c #01A0FF",
"U 	c #0196FF",
"V 	c #0190FF",
"W 	c #009DFF",
"X 	c #0187FF",
"Y 	c #035AFF",
"Z 	c #043FFF",
"` 	c #0443FF",
" .	c #0260FF",
"..	c #4A4A4A",
"+.	c #0834FF",
"@.	c #043DFF",
"#.	c #0354FF",
"$.	c #0277FF",
"%.	c #009EFF",
"&.	c #019FFF",
"*.	c #018EFF",
"=.	c #026FFF",
"-.	c #025DFF",
";.	c #0265FF",
">.	c #026CFF",
",.	c #018DFF",
"'.	c #019AFF",
").	c #017EFF",
"!.	c #0351FF",
"~.	c #0358FF",
"{.	c #4D4D4D",
"].	c #036DFF",
"^.	c #0099FF",
"/.	c #00A1FF",
"(.	c #026AFF",
"_.	c #035EFF",
":.	c #0360FF",
"<.	c #018AFF",
"[.	c #0197FF",
"}.	c #0266FF",
"|.	c #034FFF",
"1.	c #0176FF",
"2.	c #616161",
"3.	c #0C46FF",
"4.	c #009FFF",
"5.	c #0267FF",
"6.	c #0359FF",
"7.	c #0280FF",
"8.	c #018CFF",
"9.	c #0189FF",
"0.	c #0186FF",
"a.	c #0361FF",
"b.	c #0275FF",
"c.	c #027CFF",
"d.	c #0343FF",
"e.	c #036FFF",
"f.	c #818181",
"g.	c #0549FF",
"h.	c #0093FF",
"i.	c #00A3FF",
"j.	c #0286FF",
"k.	c #027EFF",
"l.	c #028AFF",
"m.	c #0184FF",
"n.	c #027DFF",
"o.	c #035CFF",
"p.	c #0194FF",
"q.	c #0283FF",
"r.	c #0344FF",
"s.	c #026DFF",
"t.	c #EEF104",
"u.	c #034EFF",
"v.	c #0098FF",
"w.	c #0273FF",
"x.	c #018BFF",
"y.	c #0374FF",
"z.	c #0173FF",
"A.	c #025EFF",
"B.	c #034AFF",
"C.	c #898888",
"D.	c #0276FF",
"E.	c #025BFF",
"F.	c #026EFF",
"G.	c #027AFF",
"H.	c #0175FF",
"I.	c #0181FF",
"J.	c #0191FF",
"K.	c #017AFF",
"L.	c #F4F700",
"M.	c #027BFF",
"N.	c #019EFF",
"O.	c #025FFF",
"P.	c #018FFF",
"Q.	c #0269FF",
"R.	c #017CFF",
"S.	c #0263FF",
"T.	c #0281FF",
"U.	c #035FFF",
"V.	c #0282FF",
"W.	c #00A2FF",
"X.	c #00A0FF",
"Y.	c #0258FF",
"Z.	c #026BFF",
"`.	c #0365FF",
" +	c #0271FF",
".+	c #0444FF",
"++	c #0262FF",
"@+	c #044FFF",
"#+	c #0362FF",
"$+	c #0188FF",
"%+	c #0256FF",
"&+	c #01A7FF",
"*+	c #767575",
"=+	c #0179FF",
"-+	c #009AFF",
";+	c #00A6FF",
">+	c #0192FF",
",+	c #0446FF",
"'+	c #076BFF",
")+	c #00A4FF",
"!+	c #0272FF",
"~+	c #0451FF",
"{+	c #0261FF",
"]+	c #0182FF",
"^+	c #4B4B4B",
"/+	c #303030",
"(+	c #7D7D7D",
"_+	c #0367FF",
":+	c #034BFF",
"<+	c #0357FF",
"[+	c #025CFF",
"}+	c #0356FF",
"|+	c #0348FF",
"1+	c #0352FF",
"2+	c #11A8FD",
"3+	c #7C7B7B",
"4+	c #212121",
"5+	c #087BFE",
"6+	c #00A7FF",
"7+	c #034DFF",
"8+	c #04A1FF",
"9+	c #0094FF",
"0+	c #00A9FF",
"a+	c #00A5FF",
"b+	c #027FFF",
"c+	c #01A4FF",
"d+	c #505050",
"e+	c #EAED03",
"f+	c #019CFF",
"g+	c #00AAFF",
"h+	c #01A9FF",
"i+	c #00ABFF",
"j+	c #00ACFF",
"k+	c #04A7FF",
"l+	c #02AAFF",
"m+	c #585858",
"n+	c #525252",
"o+	c #727171",
"p+	c #9F9F9F",
"q+	c #706F6F",
"r+	c #494949",
"s+	c #E4E70C",
"t+	c #606060",
"u+	c #464646",
"  . . . + @ + # @ @ # @ $   + @ @ + + . . + # + $ . @ @ @ # + . ",
". + . + # # $ . + + @ # $ . . $ @ # + + + . @ $ .   . # @ @ + . ",
". + @ @ @ $   $   . + % & * = - ; > , ' ) @ @ +   . . + # + # + ",
"+ @ # $ . . $   $ ! ~ { ] ^ ^ / ^ ^ ^ ] { ~ % # + + + . @ # @ # ",
"@ # $ .   .   . ( _ ^ ^ ^ : : : : : : ^ ^ ^ _ < # + . + @ # # # ",
"# + . $ . . $ [ - ^ ^ : } } | 1 2 3 } } : ^ ^ - 4 # # @ # . + + ",
"# . . + . + 5 6 ^ / : } 7 8 9 0 2 2 a b c : / / 6 ( # @   .   . ",
"+ # . . . d e ^ / : } 8 f g h i j k l f m } : ^ / e n @ .   . . ",
"# @ + .   o ^ ^ : } 2 k p q r s t u v k w x } : ^ ^ y z . . + + ",
"@ # @ + 5 ] ^ : A B C D E F G H I J K L m M N } : ^ ] ' + # # @ ",
"+ @ # O P ^ ^ : Q m D R S T U V J S W X Y Z `  .: ^ ^ P O   . $ ",
". + # ..] ^ : +.@.#.$.%.&.*.=.-.;.>.,.'.).!.Z ~.: ^ ^ ] {.+ $ + ",
"+ . # 5 ] ^ : } C ].^./.X Y Y (.L _.:.<.[.}.b |.1.: ^ ] 2.. .   ",
". + @ , / ^ : 3.Y X 4.J 5.6.7.8.9.0.a.b.'.c.d.h e.: ^ ^ y . $ . ",
". # @ f./ ^ : g.u h.i.j.#.k.l.b.1.m.n.o.p.q.C r.s.: ^ / _   . . ",
"+ @   t.^ / : u.=.v.T w.~.x.r e.y.z.K A.*.9.B.i r : ^ / C.. $ . ",
"# # $ ] / ^ : #.D.G 4.s.E.,.F.G.s H.I.:.J.q.C u.K.: / ^ L.+ . + ",
"# $ . C./ ^ : Y M.N.W ;.O.P.Q.c.c.7.R.S.p.n.h #.T.: ^ / C.# @ # ",
"@   + > ^ ^ : U.V.W.X.s.Y.V w.Z.E K.`. +[.Q..+6.X : ^ / _ # @ # ",
". . . o ^ ^ : ++T./.i.r @+G.8.Q.}.#+=.p.$+%+i u &+: ^ ^ *+@ # @ ",
"+ .   4 ] ^ : `.=+-+;+$+#.L ,.P.9.K >+>+5.,+p R &+: ^ ] 5 # @ @ ",
". $ . {.] ^ : '+G.p.)+^.!+~+{+]+9.P.7.U.i B.s I &+: ^ ] ^+@ # @ ",
".   $ /+(+^ ^ : s *.W.;+>+_+:+!.<+[+}+|+1+>.V 2+: ^ ^ 3+4+@ @ # ",
"  . .   ' ] ^ : 5+$+&.6+)+x.(.<+1+7+u.Y $.V 8+&+: ^ ] ' + @ # + ",
".     +   o ^ / : &+9+W.0+a+[.X b+s c.x.I c+4.: / ^ o /+@ # + + ",
". + . . # d+e+/ ^ : &+f+)+g+0+a+W.&.X.i.g+&+: / ^ e d+$ . # + . ",
"+ . + + @ @ ( 6 ^ ^ : &+4.&+h+i+i+i+j+&+&+: ^ ^ 6 & + .   + @ . ",
"@ # @ # @ # @ [ - ^ ^ : &+&+k+l+i+&+&+&+: ^ ^ - 4 # .   $ + @ @ ",
"@ + # @ @ # @ $ ( _ ^ ^ : : : : : : : : ^ ^ _ m+@ @ $ + . + # # ",
". .   . # @ # .   n+o+p+^ ^ ^ ^ / ^ ^ ^ p+q+% # @ + . + + # @   ",
"$     . . # @ + .   . r+' , > ; - s+y t+u+. # @ @ # @ # @ @ $ . ",
". $ .   + @ # # + . + # @ @ # # + + . + . + @ @ # # @ @ # @ .   "};
