/* XPM */
static char * portal_close_xpm[] = {
"32 32 358 2",
"  	c #343434",
". 	c #2C2C2C",
"+ 	c #252525",
"@ 	c #1A1A1A",
"# 	c #1E1E1E",
"$ 	c #3C3C3C",
"% 	c #292929",
"& 	c #424141",
"* 	c #2C2C09",
"= 	c #494848",
"- 	c #2D2D02",
"; 	c #454444",
"> 	c #3F3E3E",
", 	c #333333",
"' 	c #272727",
") 	c #383838",
"! 	c #3C3B3B",
"~ 	c #484747",
"{ 	c #4A4949",
"] 	c #535353",
"^ 	c #2D2D00",
"/ 	c #474646",
"( 	c #282828",
"_ 	c #464545",
": 	c #4D4D4D",
"< 	c #3D3D3D",
"[ 	c #291B04",
"} 	c #2A1C05",
"| 	c #2C1C04",
"1 	c #2D1D04",
"2 	c #2F1F04",
"3 	c #301F05",
"4 	c #312005",
"5 	c #332205",
"6 	c #393939",
"7 	c #221603",
"8 	c #241906",
"9 	c #251906",
"0 	c #271905",
"a 	c #271A05",
"b 	c #291C06",
"c 	c #2A1C06",
"d 	c #2E1F0B",
"e 	c #2E1F09",
"f 	c #302008",
"g 	c #323232",
"h 	c #353535",
"i 	c #1D1405",
"j 	c #1E1507",
"k 	c #21170A",
"l 	c #221709",
"m 	c #231806",
"n 	c #231707",
"o 	c #241806",
"p 	c #281B0B",
"q 	c #291E0D",
"r 	c #2C1F0E",
"s 	c #2B1D09",
"t 	c #2C1D08",
"u 	c #171004",
"v 	c #191207",
"w 	c #1D170D",
"x 	c #1C160B",
"y 	c #1C1407",
"z 	c #1E1407",
"A 	c #1E1607",
"B 	c #211608",
"C 	c #22190B",
"D 	c #251B0E",
"E 	c #251A0A",
"F 	c #271B0B",
"G 	c #281B08",
"H 	c #2A1C08",
"I 	c #414040",
"J 	c #2F2F2F",
"K 	c #110C03",
"L 	c #130E04",
"M 	c #161109",
"N 	c #1A150E",
"O 	c #1A140D",
"P 	c #181107",
"Q 	c #1A1409",
"R 	c #201A13",
"S 	c #1F190F",
"T 	c #1D150A",
"U 	c #20180C",
"V 	c #221A0F",
"W 	c #241A0C",
"X 	c #251908",
"Y 	c #261A09",
"Z 	c #202020",
"` 	c #0F0B05",
" .	c #120E09",
"..	c #120F09",
"+.	c #16120D",
"@.	c #140F08",
"#.	c #151109",
"$.	c #1B1711",
"%.	c #1C1711",
"&.	c #201B16",
"*.	c #19140B",
"=.	c #1B140B",
"-.	c #1E170E",
";.	c #201910",
">.	c #221B12",
",.	c #22190C",
"'.	c #241A0D",
").	c #414141",
"!.	c #2A2A2A",
"~.	c #080603",
"{.	c #0B0805",
"].	c #0E0B08",
"^.	c #0E0C07",
"/.	c #110E09",
"(.	c #110E08",
"_.	c #1A1713",
":.	c #1E1B18",
"<.	c #1C1814",
"[.	c #16110A",
"}.	c #17130C",
"|.	c #1D1813",
"1.	c #1B150E",
"2.	c #1E180E",
"3.	c #1E170C",
"4.	c #303030",
"5.	c #030303",
"6.	c #050503",
"7.	c #080707",
"8.	c #0A0806",
"9.	c #0C0A08",
"0.	c #0D0C09",
"a.	c #110F0C",
"b.	c #12100C",
"c.	c #191815",
"d.	c #1A1915",
"e.	c #13100B",
"f.	c #14100A",
"g.	c #1E1B17",
"h.	c #211C17",
"i.	c #1C150E",
"j.	c #1A1309",
"k.	c #373737",
"l.	c #3F3F3F",
"m.	c #060504",
"n.	c #080606",
"o.	c #060605",
"p.	c #060606",
"q.	c #141413",
"r.	c #121210",
"s.	c #181716",
"t.	c #12100E",
"u.	c #100F0C",
"v.	c #13110E",
"w.	c #110F0B",
"x.	c #120F0B",
"y.	c #1A1714",
"z.	c #1C1914",
"A.	c #17130B",
"B.	c #19130B",
"C.	c #444343",
"D.	c #0B0804",
"E.	c #0B0904",
"F.	c #0C0B07",
"G.	c #161514",
"H.	c #141312",
"I.	c #191919",
"J.	c #161616",
"K.	c #131313",
"L.	c #242323",
"M.	c #100E0D",
"N.	c #12110E",
"O.	c #11100E",
"P.	c #181715",
"Q.	c #1F1E1C",
"R.	c #171511",
"S.	c #16130F",
"T.	c #120F07",
"U.	c #2D2D04",
"V.	c #100C06",
"W.	c #0E0B06",
"X.	c #100D08",
"Y.	c #191715",
"Z.	c #13120F",
"`.	c #171715",
" +	c #181817",
".+	c #151514",
"++	c #0E0D0C",
"@+	c #0E0D0B",
"#+	c #191816",
"$+	c #120F0C",
"%+	c #0F0C07",
"&+	c #151008",
"*+	c #130F07",
"=+	c #181511",
"-+	c #191714",
";+	c #161411",
">+	c #1A1917",
",+	c #20201E",
"'+	c #1C1C1B",
")+	c #292828",
"!+	c #171716",
"~+	c #1A1A19",
"{+	c #0F0E0E",
"]+	c #0B0B0B",
"^+	c #111110",
"/+	c #131312",
"(+	c #0D0B08",
"_+	c #131210",
":+	c #1A130A",
"<+	c #171108",
"[+	c #16120A",
"}+	c #15120C",
"|+	c #1B1916",
"1+	c #201F1D",
"2+	c #21201F",
"3+	c #1E1D1B",
"4+	c #1D1C1B",
"5+	c #1B1A19",
"6+	c #191918",
"7+	c #0D0C0A",
"8+	c #0D0D0B",
"9+	c #080808",
"0+	c #090808",
"a+	c #0D0C0C",
"b+	c #1E160A",
"c+	c #1C150A",
"d+	c #181209",
"e+	c #18130C",
"f+	c #1B1611",
"g+	c #1D1A17",
"h+	c #1A1814",
"i+	c #1E1C19",
"j+	c #1D1C19",
"k+	c #181614",
"l+	c #11100D",
"m+	c #0E0C09",
"n+	c #0E0C0A",
"o+	c #090807",
"p+	c #0A0A09",
"q+	c #22180A",
"r+	c #20170A",
"s+	c #1D1408",
"t+	c #1C1409",
"u+	c #1C1812",
"v+	c #1F1B17",
"w+	c #1E1C18",
"x+	c #23211E",
"y+	c #191713",
"z+	c #13110D",
"A+	c #100E0A",
"B+	c #0E0C08",
"C+	c #3A3A3A",
"D+	c #251A0B",
"E+	c #211709",
"F+	c #231A10",
"G+	c #1F160B",
"H+	c #1C160A",
"I+	c #1D160D",
"J+	c #211C16",
"K+	c #1E1812",
"L+	c #201B17",
"M+	c #221F1B",
"N+	c #1B1712",
"O+	c #1A1611",
"P+	c #14110B",
"Q+	c #110E07",
"R+	c #130F0B",
"S+	c #130F0A",
"T+	c #2B1D0A",
"U+	c #291B09",
"V+	c #261A08",
"W+	c #261C0E",
"X+	c #261C11",
"Y+	c #231A0E",
"Z+	c #211A11",
"`+	c #201911",
" @	c #25201A",
".@	c #1E1811",
"+@	c #201B14",
"@@	c #1A140C",
"#@	c #171209",
"$@	c #18120A",
"%@	c #19140E",
"&@	c #18140E",
"*@	c #2D2D2D",
"=@	c #2D1E06",
"-@	c #2B1D07",
";@	c #2A1E0D",
">@	c #2C2216",
",@	c #291D11",
"'@	c #21170D",
")@	c #1F170C",
"!@	c #1E150A",
"~@	c #1C1509",
"{@	c #1B1409",
"]@	c #1B140A",
"^@	c #1A140B",
"/@	c #434343",
"(@	c #1C1C1C",
"_@	c #312006",
":@	c #2F1F07",
"<@	c #2F210C",
"[@	c #2F2111",
"}@	c #2C1F0F",
"|@	c #281B0A",
"1@	c #271C0B",
"2@	c #261A0B",
"3@	c #241909",
"4@	c #23190B",
"5@	c #201709",
"6@	c #21180D",
"7@	c #1E1509",
"8@	c #1E160B",
"9@	c #434242",
"0@	c #342206",
"a@	c #322107",
"b@	c #31210C",
"c@	c #2F200A",
"d@	c #2D1E0A",
"e@	c #2B1D08",
"f@	c #2A1D09",
"g@	c #291C08",
"h@	c #271B08",
"i@	c #261B09",
"j@	c #251A09",
"k@	c #221708",
"l@	c #232323",
"m@	c #2E2E2E",
"n@	c #2B2B03",
"o@	c #352306",
"p@	c #342309",
"q@	c #332208",
"r@	c #32210B",
"s@	c #31230F",
"t@	c #2F2110",
"u@	c #2E200E",
"v@	c #281B07",
"w@	c #362306",
"x@	c #352307",
"y@	c #352308",
"z@	c #36240B",
"A@	c #36250E",
"B@	c #34230B",
"C@	c #33230C",
"D@	c #31210A",
"E@	c #302009",
"F@	c #2E1F08",
"G@	c #363636",
"H@	c #362305",
"I@	c #362407",
"J@	c #362308",
"K@	c #362408",
"L@	c #362409",
"M@	c #3E3E3E",
"N@	c #515151",
"O@	c #505050",
"P@	c #3E3D3D",
"Q@	c #2D2D0C",
"  . . . + @ + # @ @ # @ $   + @ @ + + . . + # + $ . @ @ @ # + . ",
". + . + # # $ . + + @ # $ . . $ @ # + + + . @ $ .   . # @ @ + . ",
". + @ @ @ $   $   . + %   & * = - ; > , ' @ @ +   . . + # + # + ",
"+ @ # $ . . $   $ ) ! ~ { ] ] ^ ] ] ] { / ! ( # + + + . @ # @ # ",
"@ # $ .   .   . ) _ ] ] ] : : : : : : ] ] ] ;   # + . + @ # # # ",
"# + . $ . . $ < = ] ] : [ } | 1 2 3 4 5 : ] ] = 6 # # @ # . + + ",
"# . . + . + 6 { ] ^ : 7 8 9 0 a b c d e f : ^ ^ { g # @   .   . ",
"+ # . . . h ~ ] ^ : i j k l m n o p q r s t : ] ^ ~ . @ .   . . ",
"# @ + . % & ] ] : u v w x y z A B C D E F G H : ] ] I J . . + + ",
"@ # @ + $ { ] : K L M N O P Q R S T U V C W X Y : ] { ) + # # @ ",
"+ @ # Z & ] ] : `  ...+.@.#.$.%.&.*.=.-.;.>.,.'.: ] ] ).Z   . $ ",
". + # !.{ ] : ~.{.].^.^./.(._.:.<.[.}.|.1.R 2.3.: ] ] { 4.+ $ + ",
"+ . #   { ] : 5.6.7.8.9.0.a.b.c.d.e.f.+.g.$.h.i.j.: ] { k.. .   ",
". + @ l.^ ] : m.n.o.p.@ q.r.s.t.u.v.w.x.y._.z.A.B.: ] ] C.. $ . ",
". # @ C.^ ] : D.E.F.G.H.I.J.K.L.G.M.N.O.P.Q.R.S.T.: ] ^ _   . . ",
"+ @   U.] ^ : V.W.X.Y.Z.`. +.+@ Z @ .+++@+G.#+$+%+: ] ^ ~ . $ . ",
"# # $ { ^ ] : &+*+..=+-+;+>+,+'+)+!+~+{+]+^+/+(+_+: ^ ] ^ + . + ",
"# $ . ~ ^ ] : :+<+&+[+}+|+1+2+#+3+4+5+6+7+8+9+0+a+: ] ^ ~ # @ # ",
"@   + / ] ] : b+c+j.d+e+f+g+h+i+c.j+k+>+l+m+n+o+p+: ] ^ ; # @ # ",
". . . _ ] ] : q+r+s+t+:+B.u+v+w+x+:.y+|+z+A+B+B+E.: ] ] > @ # @ ",
"+ .   C+{ ] : X D+E+F+G+H+I+J+K+L+M+N+O+f.P+Q+R+S+: ] {   # @ @ ",
". $ . 4.{ ] : T+U+V+W+X+Y+U Z+`+ @.@+@@@#@$@%@}.&@: ] { . @ # @ ",
".   $ *@/ ] ] : =@-@;@>@,@W q+k '@)@!@~@t+{@]@^@: ] ] /@(@@ @ # ",
"  . .   ) { ] : _@:@<@[@}@|@1@2@3@4@l E+5@6@7@8@: ] { ) + @ # + ",
".     + % 9@] ^ : 0@a@b@c@d@e@f@g@h@i@j@m 3@k@: ^ ] 9@l@@ # + + ",
". + . . # m@n@^ ] : o@o@p@q@r@s@<@t@u@s v@v@: ^ ] / m@$ . # + . ",
"+ . + + @ @ , { ] ] : w@x@y@z@A@B@C@D@E@F@: ] ] { G@+ .   + @ . ",
"@ # @ # @ # @ < = ] ] : H@w@I@J@K@I@L@0@: ] ] = 6 # .   $ + @ @ ",
"@ + # @ @ # @ $ ) _ ] ] : : : : : : : : ] ] ; 4.@ @ $ + . + # # ",
". .   . # @ # .   M@& N@] ] ] ] ^ ] ] ] O@P@( # @ + . + + # @   ",
"$     . . # @ + .   . g , l._ - = Q@C.6 m@. # @ @ # @ # @ @ $ . ",
". $ .   + @ # # + . + # @ @ # # + + . + . + @ @ # # @ @ # @ .   "};
